<svg width="1440" height="900" viewBox="0 0 1440 900" fill="none" xmlns="http://www.w3.org/2000/svg">
<path d="M0 100C300 150 600 50 900 100C1200 150 1500 50 1800 100" stroke="#f1f5f9" stroke-width="1"/>
<path d="M0 200C300 250 600 150 900 200C1200 250 1500 150 1800 200" stroke="#f1f5f9" stroke-width="1"/>
<path d="M0 300C300 350 600 250 900 300C1200 350 1500 250 1800 300" stroke="#f1f5f9" stroke-width="1"/>
<path d="M0 400C300 450 600 350 900 400C1200 450 1500 350 1800 400" stroke="#f1f5f9" stroke-width="1"/>
<path d="M0 500C300 550 600 450 900 500C1200 550 1500 450 1800 500" stroke="#f1f5f9" stroke-width="1"/>
<path d="M0 600C300 650 600 550 900 600C1200 650 1500 550 1800 600" stroke="#f1f5f9" stroke-width="1"/>
<path d="M0 700C300 750 600 650 900 700C1200 750 1500 650 1800 700" stroke="#f1f5f9" stroke-width="1"/>
<path d="M0 800C300 850 600 750 900 800C1200 850 1500 750 1800 800" stroke="#f1f5f9" stroke-width="1"/>
<path d="M0 900C300 950 600 850 900 900C1200 950 1500 850 1800 900" stroke="#f1f5f9" stroke-width="1"/>
</svg>
